<svg width="50" height="49" viewBox="0 0 50 49" fill="none" xmlns="http://www.w3.org/2000/svg">
<path d="M49.9717 24.2977C49.9717 10.8784 38.7853 0 24.9859 0C11.1864 0 0 10.8784 0 24.2977C0 36.426 9.13843 46.4803 21.0876 48.3071V31.3302H14.7458V24.3115H21.0876V18.9547C21.0876 12.87 24.8164 9.50483 30.5226 9.50483C33.2627 9.50483 36.1158 9.98556 36.1158 9.98556V15.9604H32.9661C29.8587 15.9604 28.8983 17.8284 28.8983 19.7514V24.3115H35.8333L34.7316 31.3302H28.9124V48.3071C40.8616 46.4803 50 36.426 50 24.2977H49.9717Z" fill="black"/>
<path d="M34.7032 31.3166L35.8049 24.2979H28.8698V19.7377C28.8698 17.8148 29.8444 15.9468 32.9376 15.9468H36.0873V9.97195C36.0873 9.97195 33.2342 9.49121 30.4941 9.49121C24.7879 9.49121 21.0591 12.8564 21.0591 18.9411V24.2979H14.7173V31.3166H21.0591V48.2934C22.3303 48.4857 23.6297 48.5956 24.9574 48.5956C26.2851 48.5956 27.5845 48.4995 28.8557 48.2934V31.3166H34.6749H34.7032Z" fill="white"/>
</svg>
