<svg width="50" height="50" viewBox="0 0 50 50" fill="none" xmlns="http://www.w3.org/2000/svg">
<path d="M24.9859 49.3758C38.7852 49.3758 49.9717 38.4973 49.9717 25.078C49.9717 11.6587 38.7852 0.780273 24.9859 0.780273C11.1866 0.780273 0 11.6587 0 25.078C0 38.4973 11.1866 49.3758 24.9859 49.3758Z" fill="black"/>
<path d="M32.7403 15.8887C31.7939 15.8887 31.0171 16.6304 31.0171 17.5644C31.0171 18.4984 31.7798 19.2401 32.7403 19.2401C33.7007 19.2401 34.4634 18.4984 34.4634 17.5644C34.4634 16.6304 33.7007 15.8887 32.7403 15.8887Z" fill="white"/>
<path d="M25.0989 18.0312C21.1158 18.0312 17.8813 21.1766 17.8813 25.05C17.8813 28.9233 21.1158 32.0687 25.0989 32.0687C29.0819 32.0687 32.3164 28.9233 32.3164 25.05C32.3164 21.1766 29.0819 18.0312 25.0989 18.0312ZM25.0989 29.5414C22.5565 29.5414 20.4802 27.5223 20.4802 25.05C20.4802 22.5776 22.5565 20.5586 25.0989 20.5586C27.6412 20.5586 29.7175 22.5776 29.7175 25.05C29.7175 27.5223 27.6412 29.5414 25.0989 29.5414Z" fill="white"/>
<path d="M30.8332 39.2937H19.1383C14.2795 39.2937 10.3389 35.4478 10.3389 30.7366V19.3637C10.3389 14.6388 14.2795 10.8066 19.1383 10.8066H30.8332C35.692 10.8066 39.6326 14.6388 39.6326 19.3637V30.7366C39.6326 35.4615 35.6778 39.2937 30.8332 39.2937ZM19.1383 13.485C15.805 13.485 13.0931 16.1222 13.0931 19.3637V30.7366C13.0931 33.9781 15.805 36.6153 19.1383 36.6153H30.8332C34.1665 36.6153 36.8784 33.9781 36.8784 30.7366V19.3637C36.8784 16.1222 34.1665 13.485 30.8332 13.485H19.1383Z" fill="white"/>
</svg>
