<svg width="50" height="50" viewBox="0 0 50 50" fill="none" xmlns="http://www.w3.org/2000/svg">
<g clip-path="url(#clip0_138_1657)">
<path d="M25 50C38.8071 50 50 38.8071 50 25C50 11.1929 38.8071 0 25 0C11.1929 0 0 11.1929 0 25C0 38.8071 11.1929 50 25 50Z" fill="black"/>
<path d="M41.9554 23.7078C41.9554 16.0855 34.311 9.88184 24.9184 9.88184C15.5258 9.88184 7.88135 16.0855 7.88135 23.7078C7.88135 30.5411 13.9406 36.267 22.1295 37.3485C22.6851 37.467 23.4406 37.7152 23.6295 38.1892C23.7999 38.6189 23.7406 39.2929 23.6851 39.73C23.6851 39.73 23.4851 40.9337 23.4406 41.1892C23.3665 41.6189 23.0999 42.8744 24.9147 42.1078C26.7332 41.3411 34.7258 36.33 38.2999 32.2152C40.7702 29.5078 41.9517 26.7596 41.9517 23.7078" fill="white"/>
<path d="M21.4554 20.0225H20.2591C20.0776 20.0225 19.9258 20.1706 19.9258 20.3521V27.7743C19.9258 27.9558 20.0739 28.1039 20.2591 28.1039H21.4554C21.6369 28.1039 21.7887 27.9558 21.7887 27.7743V20.3521C21.7887 20.1706 21.6406 20.0225 21.4554 20.0225Z" fill="black"/>
<path d="M29.6812 20.0225H28.4849C28.2997 20.0225 28.1515 20.1706 28.1515 20.3521V24.7632L24.7478 20.1706C24.7478 20.1706 24.7293 20.1484 24.7219 20.1373C24.7219 20.1373 24.7071 20.1225 24.7034 20.1151C24.7034 20.1151 24.6997 20.1113 24.696 20.1076C24.6886 20.1039 24.6849 20.0965 24.6775 20.0928C24.6775 20.0928 24.6701 20.0891 24.6701 20.0854C24.6627 20.0817 24.6589 20.078 24.6515 20.0743C24.6515 20.0743 24.6441 20.0706 24.6404 20.0669C24.633 20.0669 24.6293 20.0595 24.6219 20.0558C24.6219 20.0558 24.6145 20.0558 24.6108 20.0521C24.6034 20.0521 24.5997 20.0447 24.5923 20.0447C24.5886 20.0447 24.5849 20.0447 24.5812 20.041C24.5738 20.041 24.5701 20.0373 24.5627 20.0336C24.5589 20.0336 24.5552 20.0336 24.5515 20.0336C24.5441 20.0336 24.5404 20.0336 24.533 20.0299C24.5293 20.0299 24.5219 20.0299 24.5182 20.0299C24.5108 20.0299 24.5071 20.0299 24.4997 20.0299C24.4923 20.0299 24.4886 20.0299 24.4812 20.0299C24.4775 20.0299 24.4738 20.0299 24.4701 20.0299H23.2738C23.0923 20.0299 22.9404 20.178 22.9404 20.3595V27.7817C22.9404 27.9632 23.0886 28.1114 23.2738 28.1114H24.4701C24.6552 28.1114 24.8034 27.9632 24.8034 27.7817V23.3743L28.2108 27.9743C28.233 28.0076 28.2627 28.0336 28.296 28.0558C28.3034 28.0595 28.3108 28.0632 28.3182 28.0669C28.3182 28.0669 28.3256 28.0669 28.3293 28.0706C28.333 28.0706 28.3404 28.0743 28.3441 28.078C28.3478 28.078 28.3552 28.0817 28.3589 28.0854C28.3589 28.0854 28.3664 28.0854 28.3701 28.0891C28.3775 28.0891 28.3849 28.0928 28.3923 28.0965C28.3923 28.0965 28.3923 28.0965 28.396 28.0965C28.4219 28.1039 28.4515 28.1076 28.4812 28.1076H29.6775C29.8627 28.1076 30.0108 27.9595 30.0108 27.778V20.3558C30.0108 20.1743 29.8627 20.0262 29.6775 20.0262" fill="black"/>
<path d="M18.5774 26.2521H15.3293V20.3558C15.3293 20.1743 15.1811 20.0225 14.9959 20.0225H13.7996C13.6182 20.0225 13.4663 20.1706 13.4663 20.3558V27.778C13.4663 27.8669 13.5033 27.9484 13.5589 28.0076C13.5589 28.0076 13.5589 28.0076 13.5626 28.0113C13.5626 28.0113 13.5626 28.0113 13.5663 28.0151C13.6256 28.0706 13.707 28.1076 13.7959 28.1076H18.57C18.7515 28.1076 18.8996 27.9595 18.8996 27.7743V26.578C18.8996 26.3965 18.7515 26.2447 18.57 26.2447" fill="black"/>
<path d="M36.2809 21.8815C36.4624 21.8815 36.6106 21.7334 36.6106 21.5482V20.3519C36.6106 20.1667 36.4624 20.0186 36.2809 20.0186H31.5069C31.418 20.0186 31.3365 20.0556 31.2772 20.1111C31.2772 20.1111 31.2772 20.1111 31.2735 20.1111C31.2735 20.1111 31.2698 20.1149 31.2698 20.1186C31.2143 20.1778 31.1772 20.2593 31.1772 20.3482V27.7704C31.1772 27.8593 31.2143 27.9408 31.2698 28C31.2698 28 31.2698 28 31.2735 28.0037C31.2735 28.0037 31.2735 28.0037 31.2772 28.0074C31.3365 28.063 31.418 28.1 31.5069 28.1H36.2809C36.4624 28.1 36.6106 27.9519 36.6106 27.7667V26.5704C36.6106 26.3889 36.4624 26.2371 36.2809 26.2371H33.0328V24.9815H36.2809C36.4624 24.9815 36.6106 24.8334 36.6106 24.6482V23.4519C36.6106 23.2667 36.4624 23.1186 36.2809 23.1186H33.0328V21.863H36.2809V21.8815Z" fill="black"/>
</g>
<defs>
<clipPath id="clip0_138_1657">
<rect width="50" height="50" fill="white"/>
</clipPath>
</defs>
</svg>
