<svg width="149" height="92" viewBox="0 0 149 92" fill="none" xmlns="http://www.w3.org/2000/svg">
<rect width="149" height="92" fill="#FF6B00"/>
<path fill-rule="evenodd" clip-rule="evenodd" d="M42.8141 33.1721L38.5926 41.4172L33.6721 32.9515L28.7245 41.4172L27.1795 37.7299L27.1795 37.7298C27.1409 37.6215 27.1023 37.5132 27.0521 37.3972C26.8514 36.9298 26.6572 36.4572 26.4628 35.9838L26.4628 35.9838L26.4628 35.9837L26.4628 35.9837L26.4628 35.9837L26.4628 35.9837L26.4628 35.9837C25.4001 33.3963 24.3294 30.7893 22.1354 28.9315C19.7987 26.9544 16.3303 26.1109 13.5186 27.5735C11.9775 28.3744 10.1545 30.0923 10 31.9262C10.0569 31.8848 10.0982 31.8329 10.1414 31.7787L10.1414 31.7787L10.1414 31.7787C10.1626 31.752 10.1843 31.7248 10.2086 31.6979C10.4596 31.431 10.7261 31.1833 11.0042 30.9435C11.7882 30.2664 12.6109 29.6899 13.5919 29.3262C15.0905 28.7729 16.6393 28.916 18.0143 29.7789C19.1228 30.4753 19.957 31.5393 20.6252 32.6459C21.1698 33.5435 21.5985 34.4953 22.0272 35.451C22.0388 35.4781 22.0514 35.5052 22.0639 35.5322C22.0765 35.5593 22.089 35.5864 22.1006 35.6135L22.425 36.3602L22.4637 36.4144L28.7206 50.7843L33.8459 41.4056L38.5926 50.7843L47.0356 33.1721H42.8141ZM78.8414 47.0274L78.0689 50.7882H65.6709V40.1323C65.5276 40.2361 65.3867 40.3431 65.2465 40.4494L65.2464 40.4495C65.0865 40.5709 64.9275 40.6915 64.7672 40.8059C64.3616 41.096 63.9522 41.3824 63.5312 41.6609C62.7318 42.1871 61.8975 42.6746 60.9821 43.0577C60.4414 43.2821 59.8505 43.4214 59.2441 43.4988C57.9966 43.6535 56.6718 43.5336 55.517 43.2125C54.8054 43.0158 54.1415 42.7251 53.4784 42.4348C52.6803 42.0854 51.8834 41.7365 51.0058 41.5526L50.9727 41.5451L50.9727 41.5451C50.8646 41.5206 50.7591 41.4966 50.6505 41.4791C49.9552 41.3746 49.3102 41.4559 48.6421 41.6455C48.5146 41.6803 47.8541 41.8815 47.3366 42.0672C47.3096 41.8041 47.2941 41.5371 47.2941 41.2663C47.2941 40.8484 47.3366 40.4422 47.3984 40.0398C48.0009 36.1668 51.3882 33.1721 55.432 33.1721C59.1475 33.1721 62.2953 35.6986 63.2454 39.115C63.614 38.864 63.9718 38.6028 64.3295 38.3417L64.3296 38.3416C64.7701 38.02 65.2105 37.6985 65.6709 37.3961V33.1721H69.4869V47.0274H78.8414ZM27.7508 62.5514C27.7508 62.5514 40.4346 56.62 60.0706 58.6784C65.3923 59.2363 70.8471 60.618 76.275 61.993C90.8749 65.6912 105.28 69.3402 116.379 56.7748L106.345 59.9552C95.0337 62.5882 88.0044 60.7214 79.4805 58.4575C74.4265 57.1153 68.8471 55.6335 61.5383 54.8673C41.9062 52.809 27.7508 62.5475 27.7508 62.5475V62.5514ZM98.2463 40.0668V36.9832H106.199L106.971 33.1721H94.4535V50.7959H106.199L106.971 46.9655H98.2463V43.8934H106.199L106.971 40.0668H98.2463ZM59.2408 45.0388C58.4722 46.3465 57.0509 47.2364 55.4325 47.2364C53.0959 47.2364 51.1531 45.387 51.0025 43.0887C50.9546 43.0794 50.908 43.0689 50.8613 43.0584C50.7913 43.0426 50.7213 43.0268 50.6472 43.0152C49.9519 42.9107 49.3069 42.9881 48.6388 43.1816C48.5113 43.2164 47.8508 43.4176 47.3333 43.6033C47.7388 47.7007 51.2149 50.916 55.4287 50.916C59.6425 50.916 63.3155 47.4686 63.5241 43.1971C62.7246 43.7233 61.8903 44.2108 60.975 44.5938C60.4342 44.8182 59.8472 44.9575 59.2369 45.0349L59.2408 45.0388ZM54.629 40.4803C55.5587 40.7274 56.2692 40.9163 57.3207 40.9026L57.3168 40.9064C58.1704 40.8948 59.0008 40.7981 59.7964 40.6201C59.4797 38.496 58.572 35.7721 55.4281 35.7721C52.7856 35.7721 52.0038 37.8172 51.383 39.4411C51.3496 39.5285 51.3166 39.6147 51.2839 39.6993C52.1611 39.8306 53.0939 40.0762 53.8991 40.2882C54.0191 40.3198 54.1364 40.3506 54.2501 40.3802C54.3811 40.4144 54.5069 40.4478 54.629 40.4803ZM92.3093 33.1721H80.8807V50.7882H84.6774V43.8895H91.5368L92.3093 40.0668H84.6774V36.9832H91.5368L92.3093 33.1721ZM120.323 43.4951C122.465 42.5146 123.792 39.7959 123.096 37.0683C122.497 34.7197 120.501 33.1721 118.33 33.1721H109.323C109.323 33.1721 109.304 33.1837 109.304 33.1953V42.1948V43.8934V50.7688C109.304 50.7688 109.312 50.7882 109.323 50.7882H113.101C113.101 50.7882 113.12 50.7804 113.12 50.7688V43.8934H115.977C116.024 43.9604 116.07 44.0273 116.117 44.0943C116.557 44.728 116.997 45.3616 117.438 45.9943C117.827 46.5539 118.195 47.1327 118.563 47.7121C119.454 49.1157 120.348 50.5228 121.559 51.6703C122.98 53.0168 124.892 53.7558 126.827 53.9183C128.681 54.073 130.967 53.7983 132.331 52.4054C133.451 51.2563 134.158 49.7241 134.679 48.2268C134.799 47.8863 134.907 47.5381 135 47.186C135.004 47.1666 134.984 47.155 134.969 47.1666C134.969 47.1666 134.231 48.4009 133.609 49.1825C131.879 51.3646 129.195 52.3977 126.723 51.1286C125.157 50.3248 123.766 48.4125 123.124 47.5302C123.071 47.457 123.023 47.3908 122.98 47.333L122.64 46.8416L120.323 43.4951ZM113.139 40.0668H118.492C118.994 40.0668 119.454 39.471 119.489 38.6546C119.527 37.7415 119.091 36.9832 118.539 36.9832H113.139C113.128 36.9832 113.12 37.0141 113.12 37.0141V40.0359C113.12 40.0514 113.139 40.0668 113.139 40.0668Z" fill="white"/>
</svg>
