<svg width="175" height="55" viewBox="0 0 175 55" fill="none" xmlns="http://www.w3.org/2000/svg">
<path fill-rule="evenodd" clip-rule="evenodd" d="M45.9397 8.87195L40.0296 20.4151L33.1408 8.56319L26.2142 20.4151L24.0513 15.2529C23.9972 15.1012 23.9432 14.9496 23.8729 14.7871C23.5919 14.1328 23.3201 13.471 23.0479 12.8082C21.5602 9.18592 20.0611 5.53605 16.9895 2.93517C13.7181 0.167204 8.86243 -1.01365 4.92597 1.03389C2.76849 2.15516 0.216289 4.5602 0 7.12775C0.0796747 7.0697 0.137519 6.99708 0.197902 6.92126C0.227674 6.88388 0.258063 6.84573 0.29199 6.80816C0.643459 6.4344 1.01656 6.08773 1.40588 5.75189C2.50354 4.80396 3.65528 3.99686 5.02871 3.48768C7.12671 2.71308 9.295 2.91351 11.22 4.12144C12.7718 5.09646 13.9398 6.58607 14.8753 8.13527C15.6377 9.39196 16.2379 10.7245 16.8381 12.0624C16.8543 12.1003 16.8719 12.1383 16.8894 12.1762C16.907 12.2141 16.9246 12.252 16.9408 12.2899L17.395 13.3354L17.4491 13.4112L26.2088 33.5291L33.3842 20.3988L40.0296 33.5291L51.8498 8.87195H45.9397ZM96.3781 28.2692L95.2967 33.5343H77.9395V18.6163C77.739 18.7616 77.5418 18.9113 77.3457 19.0601L77.3455 19.0602L77.3453 19.0603C77.1215 19.2302 76.899 19.399 76.6746 19.5591C76.1069 19.9653 75.5337 20.3662 74.9443 20.7562C73.825 21.4929 72.6571 22.1754 71.3756 22.7116C70.6185 23.0258 69.7912 23.2208 68.9423 23.3291C67.1958 23.5458 65.3411 23.3779 63.7243 22.9283C62.7281 22.653 61.7987 22.2461 60.8704 21.8396C59.7531 21.3504 58.6374 20.8619 57.4087 20.6045L57.3624 20.594C57.2111 20.5597 57.0634 20.5262 56.9112 20.5016C55.938 20.3553 55.0349 20.4691 54.0995 20.7345C53.9211 20.7833 52.9964 21.0649 52.2719 21.3249C52.234 20.9566 52.2124 20.5828 52.2124 20.2037C52.2124 19.6187 52.2719 19.0499 52.3584 18.4866C53.2019 13.0644 57.944 8.87179 63.6054 8.87179C68.8071 8.87179 73.214 12.4089 74.5442 17.1919C75.0602 16.8405 75.5611 16.4748 76.0619 16.1092C76.6785 15.6591 77.295 15.209 77.9395 14.7857V8.87179H83.2818V28.2692H96.3781ZM24.851 50.0028C24.851 50.0028 42.6083 41.6988 70.0986 44.5806C77.549 45.3616 85.1857 47.296 92.7848 49.2209C113.225 54.3984 133.392 59.507 148.93 41.9155L134.882 46.3681C119.047 50.0543 109.206 47.4407 97.2724 44.2713C90.1969 42.3922 82.3857 40.3177 72.1534 39.2451C44.6685 36.3633 24.851 49.9973 24.851 49.9973V50.0028ZM123.545 18.5245V14.2073H134.678L135.76 8.87179H118.235V33.5452H134.678L135.76 28.1826H123.545V23.8817H134.678L135.76 18.5245H123.545ZM68.9366 25.4851C67.8606 27.316 65.8708 28.5619 63.6051 28.5619C60.3338 28.5619 57.6139 25.9727 57.4031 22.7551C57.336 22.7421 57.2707 22.7274 57.2054 22.7126L57.2053 22.7126L57.2053 22.7126L57.2053 22.7126L57.2052 22.7126L57.2052 22.7126L57.2052 22.7126L57.2051 22.7126C57.1072 22.6905 57.0093 22.6684 56.9056 22.6522C55.9323 22.5059 55.0293 22.6143 54.0938 22.8851C53.9154 22.9338 52.9908 23.2155 52.2662 23.4755C52.834 29.2119 57.7005 33.7132 63.5997 33.7132C69.499 33.7132 74.6413 28.8869 74.9333 22.9068C73.814 23.6434 72.646 24.326 71.3645 24.8622C70.6075 25.1764 69.7856 25.3714 68.9312 25.4797L68.9366 25.4851ZM62.4812 19.1033C63.7827 19.4492 64.7774 19.7136 66.2495 19.6945L66.2441 19.6999C67.4391 19.6837 68.6016 19.5482 69.7155 19.2991C69.2721 16.3253 68.0014 12.5119 63.6 12.5119C59.9005 12.5119 58.8059 15.375 57.9368 17.6485C57.89 17.7708 57.8439 17.8915 57.798 18.0099C59.0262 18.1937 60.3321 18.5375 61.4593 18.8343L61.4607 18.8347L61.4637 18.8355L61.4702 18.8372C61.6345 18.8804 61.7949 18.9227 61.9508 18.9632C62.1337 19.0109 62.3097 19.0577 62.4803 19.103L62.4806 19.1031L62.4812 19.1033ZM115.233 8.87179H99.2332V33.5343H104.548V23.8762H114.152L115.233 18.5245H104.548V14.2073H114.152L115.233 8.87179ZM154.452 23.324C157.45 21.9512 159.309 18.1451 158.334 14.3265C157.496 11.0385 154.701 8.87179 151.662 8.87179H139.052C139.052 8.87179 139.025 8.88804 139.025 8.90429V21.5036V23.8817V33.5071C139.025 33.5071 139.036 33.5342 139.052 33.5342H144.34C144.34 33.5342 144.367 33.5234 144.367 33.5071V23.8817H148.368C148.434 23.9775 148.501 24.0733 148.568 24.1691C149.183 25.0541 149.798 25.9392 150.413 26.8228C150.958 27.6063 151.472 28.4167 151.988 29.2279C153.236 31.1928 154.487 33.1628 156.182 34.7692C158.172 36.6543 160.849 37.6889 163.558 37.9164C166.153 38.1331 169.354 37.7485 171.263 35.7984C172.831 34.1896 173.821 32.0446 174.55 29.9483C174.718 29.4716 174.87 28.9841 174.999 28.4912C175.005 28.4641 174.978 28.4479 174.956 28.4641C174.956 28.4641 173.923 30.1921 173.053 31.2863C170.63 34.3413 166.872 35.7876 163.412 34.0109C161.22 32.8855 159.272 30.2083 158.374 28.973C158.299 28.8705 158.232 28.778 158.172 28.697L157.696 28.0091L154.452 23.324ZM144.394 18.5245H151.889C152.592 18.5245 153.235 17.6903 153.284 16.5474C153.338 15.269 152.727 14.2073 151.954 14.2073H144.394C144.378 14.2073 144.367 14.2506 144.367 14.2506V18.4811C144.367 18.5028 144.394 18.5245 144.394 18.5245Z" fill="white"/>
</svg>
